<svg width="92" height="92" xmlns="http://www.w3.org/2000/svg" xmlns:svg="http://www.w3.org/2000/svg">
 <g>
  <title>Layer 1</title>
  <circle fill="#2BB673" cx="46" cy="46" r="46" id="svg_2"/>
  <path fill="#FFF" d="m55.1,52.2c-1.9,0 -3.4,1.7 -3.1,3.7c0.3,1.5 1.7,2.5 3.2,2.5l4.8,0l2.8,-0.4c-4.5,6.6 -12.2,9.6 -20.7,8.2c-6.9,-1.1 -12.8,-5.8 -15.3,-12.3c-5.7,-14.8 5.1,-29 19.2,-29c7.3,0 13.8,4.3 17.5,9.5l0,0.1c1,1.4 2.9,1.8 4.3,0.8c1.3,-0.9 1.7,-2.7 0.9,-4.1c-5.1,-8 -14.3,-13.1 -24.6,-12.4c-13.4,1.1 -24.3,12.1 -25.1,25.6c-0.9,15.7 11.5,28.4 27,28.4c8.1,0 15.4,-3.5 20.3,-9.3l-0.6,3.3l0,3c0,1.5 1,2.9 2.5,3.2c2,0.4 3.7,-1.2 3.7,-3.1l0,-17.7l-16.8,0z" id="svg_3"/>
 </g>
</svg>
